<?xml version="1.0" standalone="no"?>
<!DOCTYPE svg PUBLIC "-//W3C//DTD SVG 20010904//EN"
 "http://www.w3.org/TR/2001/REC-SVG-20010904/DTD/svg10.dtd">
<svg version="1.0" xmlns="http://www.w3.org/2000/svg"
 width="900.000000pt" height="600.000000pt" viewBox="0 0 900.000000 600.000000"
 preserveAspectRatio="xMidYMid meet">

<g transform="translate(0.000000,600.000000) scale(0.100000,-0.100000)"
fill="#000000" stroke="none">
<path d="M4140 4769 c-118 -9 -278 -25 -355 -35 -159 -20 -165 -20 -220 -5
-83 22 -133 13 -185 -34 -18 -17 -59 -30 -150 -50 -425 -90 -863 -236 -1200
-397 -119 -57 -281 -154 -323 -193 -51 -49 -107 -190 -107 -273 0 -81 93 -129
438 -223 282 -76 433 -135 448 -174 3 -8 -8 -40 -26 -72 -221 -400 -322 -602
-376 -753 -37 -102 -31 -140 32 -210 40 -44 100 -80 133 -80 26 0 51 36 51 73
0 44 43 162 108 299 57 118 220 419 274 503 13 22 40 67 58 100 137 250 562
885 746 1116 59 74 43 68 231 85 l73 7 -108 -110 c-59 -60 -135 -143 -167
-184 -33 -41 -63 -76 -66 -79 -22 -18 -235 -314 -328 -455 -86 -131 -119 -172
-141 -180 -41 -14 -45 -22 -30 -50 12 -23 11 -30 -8 -63 -43 -72 -130 -258
-151 -321 -30 -92 -28 -139 9 -189 31 -43 124 -112 150 -112 8 0 49 39 90 86
88 102 472 494 483 494 4 0 -3 -21 -17 -47 -53 -107 -166 -432 -190 -548 -12
-57 -9 -121 8 -154 38 -72 143 -150 205 -151 41 0 109 42 192 118 43 41 79 71
79 67 0 -10 -370 -633 -472 -794 -41 -65 -37 -86 26 -147 64 -62 122 -94 170
-94 42 0 23 -27 276 385 169 273 284 446 403 603 109 144 130 166 98 104 -37
-72 -113 -275 -134 -358 l-21 -82 29 -42 c29 -42 127 -120 151 -120 7 0 22 19
32 43 23 51 125 201 224 330 40 52 105 135 143 185 39 49 71 89 73 87 2 -1
-17 -42 -41 -91 -41 -81 -79 -169 -120 -281 -32 -84 -57 -203 -57 -272 0 -104
28 -171 104 -246 74 -73 124 -94 159 -64 l22 19 -28 25 c-15 14 -35 25 -42 25
-40 0 -31 175 17 317 37 110 190 421 259 528 25 39 71 108 101 155 31 47 115
170 187 274 72 104 131 195 131 202 0 21 -50 74 -91 94 -66 34 -97 25 -168
-49 -228 -237 -315 -332 -426 -461 -50 -58 -92 -107 -95 -110 -16 -16 -161
-203 -189 -243 -18 -27 -35 -46 -38 -44 -5 6 91 183 164 302 7 11 24 40 39 65
15 25 65 104 110 176 46 73 84 141 84 153 0 26 -33 58 -85 82 -57 26 -95 24
-141 -10 -91 -67 -329 -341 -538 -621 -98 -131 -108 -140 -66 -65 346 626 510
995 510 1148 0 70 -35 165 -85 232 -25 33 -45 63 -45 67 0 5 -3 8 -7 8 -13 0
-43 -60 -43 -83 0 -58 -65 -292 -116 -419 -70 -176 -199 -448 -213 -448 -11 0
-24 -12 -71 -71 -160 -199 -303 -339 -347 -339 -22 0 -15 70 17 166 16 49 78
184 136 299 83 162 106 216 101 236 -16 62 -134 159 -196 161 -62 2 -188 -100
-460 -373 l-183 -184 38 75 c40 79 187 330 244 416 25 38 52 61 108 94 182
106 396 270 526 404 67 69 96 112 96 143 0 19 -51 73 -70 73 -12 0 -27 -23
-34 -55 -10 -43 -167 -192 -310 -294 -64 -46 -119 -82 -121 -79 -9 8 195 271
300 388 128 142 209 207 283 225 27 7 48 19 50 28 4 18 -52 84 -79 92 -10 4
-19 11 -19 16 0 7 126 9 353 8 l352 -2 33 58 c17 31 32 64 32 72 0 43 -83 134
-159 172 -35 18 -57 21 -178 20 -76 -1 -235 -10 -353 -20z m-1132 -561 c-111
-168 -233 -361 -343 -543 -100 -166 -95 -161 -127 -135 -73 57 -219 113 -512
195 -238 67 -277 82 -269 101 13 34 271 182 446 255 207 87 522 190 717 235
41 9 98 22 125 29 28 7 52 11 54 9 2 -1 -39 -67 -91 -146z"/>
<path d="M6429 3078 c0 -2 -2 -52 -3 -113 -4 -123 -20 -181 -82 -294 -59 -105
-187 -292 -195 -284 -23 25 -69 349 -69 489 0 78 -8 85 -80 72 -64 -11 -96
-27 -129 -62 -20 -22 -23 -34 -22 -95 2 -92 17 -203 37 -271 39 -136 39 -136
12 -177 -82 -124 -203 -232 -231 -204 -14 14 3 64 77 231 31 69 56 137 56 151
0 37 -39 90 -85 116 -62 35 -79 31 -127 -34 -136 -187 -191 -260 -273 -363
-105 -131 -128 -155 -149 -147 -11 5 -12 14 -5 48 29 126 183 373 326 522 57
59 89 71 113 42 16 -19 34 -19 50 0 37 45 -103 195 -180 195 -124 0 -442 -404
-556 -707 -28 -74 -30 -131 -8 -197 21 -60 91 -136 125 -136 40 0 109 50 186
136 73 80 230 289 259 345 23 46 27 29 10 -39 -34 -130 -13 -191 86 -255 78
-49 211 20 328 171 30 39 57 71 60 71 3 1 14 -20 24 -45 l19 -46 -119 -117
c-188 -184 -339 -298 -426 -322 -24 -6 -38 -16 -38 -26 0 -21 38 -53 64 -53
57 0 235 117 430 282 54 45 111 93 126 105 l27 22 33 -50 c51 -79 139 -169
172 -176 15 -3 28 -9 28 -13 0 -15 -114 -80 -157 -92 -50 -12 -54 -28 -16 -58
39 -30 75 -22 176 39 83 50 326 239 404 314 24 22 44 39 46 36 2 -2 19 -26 37
-54 42 -63 95 -123 134 -152 40 -31 113 -32 144 -2 25 23 27 20 -43 110 -28
37 -70 103 -93 147 l-42 81 82 83 c77 76 132 136 215 230 52 59 124 160 149
210 45 88 22 177 -68 267 -52 52 -90 73 -126 69 l-27 -3 -1 -100 c0 -80 -6
-114 -26 -173 -32 -89 -117 -241 -194 -347 l-58 -79 -18 70 c-21 84 -47 283
-49 382 -3 128 -11 139 -86 121 -37 -8 -40 -7 -83 40 -59 63 -101 91 -139 91
-17 0 -31 -1 -32 -2z m186 -698 c15 -41 38 -97 51 -124 l24 -49 -41 -46 c-58
-65 -210 -207 -236 -222 -19 -10 -25 -7 -54 26 -42 47 -115 163 -136 216 l-16
41 95 96 c94 96 155 162 218 235 l33 38 18 -68 c9 -37 29 -102 44 -143z"/>
</g>
</svg>
